Coordinates
version=1
nRows=9
nColumns=36
inDegrees=yes

Units are S.I. units (second, meters, Newtons, ...)
If the header above contains a line with 'inDegrees', this indicates whether rotational values are in degrees (yes) or radians (no).

endheader
time	pelvis_tilt	pelvis_list	pelvis_rotation	pelvis_tx	pelvis_ty	pelvis_tz	hip_flexion_r	hip_adduction_r	hip_rotation_r	knee_angle_r	knee_angle_r_beta	ankle_angle_r	subtalar_angle_r	mtp_angle_r	hip_flexion_l	hip_adduction_l	hip_rotation_l	knee_angle_l	knee_angle_l_beta	ankle_angle_l	subtalar_angle_l	mtp_angle_l	lumbar_extension	lumbar_bending	lumbar_rotation	arm_flex_r	arm_add_r	arm_rot_r	elbow_flex_r	pro_sup_r	arm_flex_l	arm_add_l	arm_rot_l	elbow_flex_l	pro_sup_l
      1.43333330	      4.61644480	     -0.55825924	     -0.01510014	     -0.98686448	      1.31910861	     -0.06885534	     -6.19070677	     -1.00448803	     -1.71152318	      4.41987291	      0.07714133	      4.29614929	    -11.89092701	     -7.49999987	     -4.97165912	     -0.68030000	     15.47921236	      6.71532371	      0.11720451	      3.92494215	    -17.09725113	     -7.49999987	    -10.74306629	      2.45643529	     -0.82737076	      4.14742950	     -5.14123317	     15.28648121	     18.59316763	     91.16650584	      7.88700304	     -3.12903051	     24.80338325	     20.36396003	     82.65007757
      1.43750000	      4.68268020	     -0.59565819	     -0.14503243	     -0.98019148	      1.31896312	     -0.06397058	     -6.26167079	     -0.93256392	     -1.82781506	      4.49573992	      0.07846546	      4.24020074	    -11.92084725	     -7.49999987	     -5.08003223	     -0.79204738	     15.49971380	      6.77820594	      0.11830201	      3.91399159	    -17.09453031	     -7.49999987	    -10.69384068	      2.39014825	     -0.76997715	      4.05886159	     -5.04962680	     15.28864341	     18.58322730	     91.18125578	      7.72352945	     -3.18697665	     24.79706331	     20.32938193	     82.66138569
      1.44166670	      4.66764161	     -0.58155283	     -0.18227399	     -0.98688165	      1.31917319	     -0.06868138	     -6.26322879	     -0.94900176	     -1.83177615	      4.49470083	      0.07844733	      4.23974299	    -11.92295038	     -7.49999987	     -5.05792222	     -0.80087134	     15.49974399	      6.76843028	      0.11813139	      3.91683132	    -17.09608901	     -7.49999987	    -10.68641581	      2.38738644	     -0.76575956	      4.05358225	     -5.04190433	     15.28911708	     18.58343775	     91.18190821	      7.72104332	     -3.19959811	     24.79520208	     20.32885650	     82.66167667
      1.44583330	      4.60417203	     -0.55267817	     -0.18889298	     -0.98677813	      1.31917966	     -0.06834420	     -6.07755799	     -0.99485553	     -1.89658567	      4.69323014	      0.08191232	      4.22110149	    -12.05879020	     -7.49999987	     -4.94876724	     -0.76552458	     15.72510009	      6.90801531	      0.12056761	      3.93091909	    -17.35719584	     -7.49999987	    -10.64442738	      2.38342415	     -0.69720664	      4.12272925	     -4.99377985	     15.11237939	     18.45423339	     90.71562822	      7.83723424	     -3.26702258	     24.48940209	     20.44371973	     82.15268076
      1.45000000	      4.52095129	     -0.53399679	     -0.14497043	     -0.98671855	      1.32309735	     -0.06851286	     -5.98722734	     -1.02279816	     -1.93487496	      4.68434939	      0.08175732	      4.18490253	    -11.99719066	     -7.49999987	     -4.85039562	     -0.75999497	     15.72043524	      6.97282093	      0.12169868	      4.12876784	    -16.93023985	     -7.49999987	    -10.64694737	      2.41301791	     -0.71041118	      4.09978305	     -5.00533860	     14.98684978	     18.60828641	     89.26176289	      7.86674498	     -3.26806391	     24.13913947	     20.63037728	     80.84318509
      1.45416670	      4.47208366	     -0.52742525	     -0.10569789	     -0.98641204	      1.32294012	     -0.06820925	     -5.93639942	     -1.05848188	     -2.02231257	      4.66842735	      0.08147943	      4.18116798	    -12.03018440	     -7.49999987	     -4.71034394	     -0.70329424	     16.02937238	      7.07483254	      0.12347912	      3.77344664	    -17.53643523	     -7.49999987	    -10.68480114	      2.43333166	     -0.83241094	      4.18386200	     -4.91026211	     13.51397113	     18.50314605	     95.88001934	      7.80511724	     -3.25597642	     22.38314937	     20.84056779	     87.24348553
      1.45833330	      4.53448075	     -0.50287836	     -0.04548927	     -0.98672385	      1.32286686	     -0.06854880	     -6.02665496	     -1.07897480	     -2.10522420	      4.59396792	      0.08017987	      4.07465064	    -11.86493196	     -7.49999987	     -4.73261149	     -0.67903574	     16.18030088	      7.16825035	      0.12510957	      3.77230933	    -17.43723530	     -7.49999987	    -10.84747359	      2.42811843	     -0.79672485	      4.27677160	     -4.85035381	     13.49314821	     18.42547695	     94.31807646	      7.93519848	     -3.21970952	     22.24516597	     20.82162426	     85.77500568
      1.46250000	      4.51380780	     -0.51973324	     -0.05414939	     -0.98667321	      1.31877381	     -0.06828202	     -5.99990213	     -1.08016488	     -2.04438860	      4.60973860	      0.08045512	      3.96572976	    -12.05456797	     -7.49999987	     -4.68453810	     -0.67192045	     16.44900444	      7.15825587	      0.12493513	      3.46803508	    -18.03484592	     -7.49999987	    -10.88458594	      2.44749061	     -0.75420611	      4.31943821	     -4.89962138	     14.10231720	     18.36884766	     93.55643934	      8.00856734	     -3.31716037	     22.82195861	     20.95758787	     85.31035574
      1.46666670	      4.50217864	     -0.49990696	     -0.04672635	     -0.98067435	      1.31865782	     -0.06448496	     -6.04221399	     -1.06542669	     -2.04485079	      4.62076277	      0.08064752	      3.96454684	    -12.05331665	     -7.49999987	     -4.68629793	     -0.69622266	     16.45322679	      7.16672765	      0.12508299	      3.46682635	    -18.03305799	     -7.49999987	    -10.88813691	      2.45034386	     -0.75548539	      4.31918146	     -4.90402823	     14.10162854	     18.36775565	     93.55673687	      8.01000696	     -3.31415152	     22.82161501	     20.95776217	     85.31062075
